<mxGraphModel dx="0" dy="0" grid="1" gridSize="10" guides="1" tooltips="1" connect="1" arrows="1" fold="1" page="0" pageScale="1" background="none" math="0" shadow="0">
  <root>
    <mxCell id="0" />
    <mxCell id="1" parent="0" />
    <mxCell id="node5" parent="1" vertex="1" value="&lt;p style=&quot;margin:0px;margin-top:4px;text-align:center;&quot;&gt;&lt;b&gt;Birds&lt;/b&gt;&lt;/p&gt;&lt;hr size=&quot;1&quot;/&gt;&lt;p style=&quot;margin:0 0 0 4px;line-height:1.6;&quot;&gt;+ Birds(): &lt;/p&gt;&lt;hr size=&quot;1&quot;/&gt;&lt;p style=&quot;margin:0 0 0 4px;line-height:1.6;&quot;&gt;~ decreaseImpact(): void&lt;br/&gt;~ launch(float): void&lt;/p&gt;" style="verticalAlign=top;align=left;overflow=fill;fontSize=14;fontFamily=Helvetica;html=1;rounded=0;shadow=0;comic=0;labelBackgroundColor=none;strokeWidth=1;">
      <mxGeometry x="191" y="415" width="187" height="122" as="geometry" />
    </mxCell>
    <mxCell id="node1" parent="1" vertex="1" value="&lt;p style=&quot;margin:0px;margin-top:4px;text-align:center;&quot;&gt;&lt;b&gt;Blocks&lt;/b&gt;&lt;/p&gt;&lt;hr size=&quot;1&quot;/&gt;&lt;p style=&quot;margin:0 0 0 4px;line-height:1.6;&quot;&gt;+ Blocks(): &lt;/p&gt;&lt;hr size=&quot;1&quot;/&gt;&lt;p style=&quot;margin:0 0 0 4px;line-height:1.6;&quot;&gt;~ decreaseStrength(): void&lt;br/&gt;~ eliminateBlock(): void&lt;/p&gt;" style="verticalAlign=top;align=left;overflow=fill;fontSize=14;fontFamily=Helvetica;html=1;rounded=0;shadow=0;comic=0;labelBackgroundColor=none;strokeWidth=1;">
      <mxGeometry x="64" y="135" width="201" height="122" as="geometry" />
    </mxCell>
    <mxCell id="node2" parent="1" vertex="1" value="&lt;p style=&quot;margin:0px;margin-top:4px;text-align:center;&quot;&gt;&lt;b&gt;GameData&lt;/b&gt;&lt;/p&gt;&lt;hr size=&quot;1&quot;/&gt;&lt;p style=&quot;margin:0 0 0 4px;line-height:1.6;&quot;&gt;+ GameData(): &lt;/p&gt;&lt;hr size=&quot;1&quot;/&gt;&lt;p style=&quot;margin:0 0 0 4px;line-height:1.6;&quot;&gt;- allBirds: ArrayList&amp;lt;Birds&amp;gt;&lt;br/&gt;- allblocks: ArrayList&amp;lt;Blocks&amp;gt;&lt;br/&gt;- allPigs: ArrayList&amp;lt;Pigs&amp;gt;&lt;/p&gt;&lt;hr size=&quot;1&quot;/&gt;&lt;p style=&quot;margin:0 0 0 4px;line-height:1.6;&quot;&gt;+ saveLevel(Level): void&lt;/p&gt;&lt;hr size=&quot;1&quot;/&gt;&lt;p style=&quot;margin:0 0 0 4px;line-height:1.6;&quot;&gt; allBirds: ArrayList&amp;lt;Birds&amp;gt;&lt;br/&gt; allblocks: ArrayList&amp;lt;Blocks&amp;gt;&lt;br/&gt; allPigs: ArrayList&amp;lt;Pigs&amp;gt;&lt;/p&gt;" style="verticalAlign=top;align=left;overflow=fill;fontSize=14;fontFamily=Helvetica;html=1;rounded=0;shadow=0;comic=0;labelBackgroundColor=none;strokeWidth=1;">
      <mxGeometry x="-65" y="1153" width="218" height="237" as="geometry" />
    </mxCell>
    <mxCell id="node7" parent="1" vertex="1" value="&lt;p style=&quot;margin:0px;margin-top:4px;text-align:center;&quot;&gt;&lt;b&gt;Level&lt;/b&gt;&lt;/p&gt;&lt;hr size=&quot;1&quot;/&gt;&lt;p style=&quot;margin:0 0 0 4px;line-height:1.6;&quot;&gt;+ Level(): &lt;/p&gt;&lt;hr size=&quot;1&quot;/&gt;&lt;p style=&quot;margin:0 0 0 4px;line-height:1.6;&quot;&gt;- pigs: ArrayList&amp;lt;Pigs&amp;gt;&lt;br/&gt;- blocks: ArrayList&amp;lt;Blocks&amp;gt;&lt;br/&gt;- structure: String&lt;br/&gt;- stars: int&lt;br/&gt;- birds: ArrayList&amp;lt;Birds&amp;gt;&lt;/p&gt;&lt;hr size=&quot;1&quot;/&gt;&lt;p style=&quot;margin:0 0 0 4px;line-height:1.6;&quot;&gt; pigs: ArrayList&amp;lt;Pigs&amp;gt;&lt;br/&gt; blocks: ArrayList&amp;lt;Blocks&amp;gt;&lt;br/&gt; stars: int&lt;br/&gt; birds: ArrayList&amp;lt;Birds&amp;gt;&lt;br/&gt; structure: String&lt;/p&gt;" style="verticalAlign=top;align=left;overflow=fill;fontSize=14;fontFamily=Helvetica;html=1;rounded=0;shadow=0;comic=0;labelBackgroundColor=none;strokeWidth=1;">
      <mxGeometry x="202" y="818" width="205" height="307" as="geometry" />
    </mxCell>
    <mxCell id="node0" parent="1" vertex="1" value="&lt;p style=&quot;margin:0px;margin-top:4px;text-align:center;&quot;&gt;&lt;b&gt;Menu&lt;/b&gt;&lt;/p&gt;&lt;hr size=&quot;1&quot;/&gt;&lt;p style=&quot;margin:0 0 0 4px;line-height:1.6;&quot;&gt;+ Menu(): &lt;/p&gt;&lt;hr size=&quot;1&quot;/&gt;&lt;p style=&quot;margin:0 0 0 4px;line-height:1.6;&quot;&gt;~ displayLevel(GameData): int&lt;br/&gt;~ logout(GameData): void&lt;br/&gt;~ displayGems(GameData): int&lt;br/&gt;~ displayCoins(GameData): int&lt;br/&gt;~ displayName(GameData): String&lt;br/&gt;~ howtoplay(GameData): void&lt;/p&gt;" style="verticalAlign=top;align=left;overflow=fill;fontSize=14;fontFamily=Helvetica;html=1;rounded=0;shadow=0;comic=0;labelBackgroundColor=none;strokeWidth=1;">
      <mxGeometry x="323" y="1167" width="242" height="209" as="geometry" />
    </mxCell>
    <mxCell id="node6" parent="1" vertex="1" value="&lt;p style=&quot;margin:0px;margin-top:4px;text-align:center;&quot;&gt;&lt;b&gt;Pigs&lt;/b&gt;&lt;/p&gt;&lt;hr size=&quot;1&quot;/&gt;&lt;p style=&quot;margin:0 0 0 4px;line-height:1.6;&quot;&gt;+ Pigs(): &lt;/p&gt;&lt;hr size=&quot;1&quot;/&gt;&lt;p style=&quot;margin:0 0 0 4px;line-height:1.6;&quot;&gt;~ decreaseStrength(int): void&lt;/p&gt;&lt;hr size=&quot;1&quot;/&gt;&lt;p style=&quot;margin:0 0 0 4px;line-height:1.6;&quot;&gt; destroyed: boolean&lt;/p&gt;" style="verticalAlign=top;align=left;overflow=fill;fontSize=14;fontFamily=Helvetica;html=1;rounded=0;shadow=0;comic=0;labelBackgroundColor=none;strokeWidth=1;">
      <mxGeometry x="316" y="134" width="217" height="124" as="geometry" />
    </mxCell>
    <mxCell id="node3" parent="1" vertex="1" value="&lt;p style=&quot;margin:0px;margin-top:4px;text-align:center;&quot;&gt;&lt;b&gt;Purchases&lt;/b&gt;&lt;/p&gt;&lt;hr size=&quot;1&quot;/&gt;&lt;p style=&quot;margin:0 0 0 4px;line-height:1.6;&quot;&gt;+ Purchases(): &lt;/p&gt;&lt;hr size=&quot;1&quot;/&gt;&lt;p style=&quot;margin:0 0 0 4px;line-height:1.6;&quot;&gt;+ diplayBirds(GameData): ArrayList&amp;lt;Birds&amp;gt;&lt;/p&gt;" style="verticalAlign=top;align=left;overflow=fill;fontSize=14;fontFamily=Helvetica;html=1;rounded=0;shadow=0;comic=0;labelBackgroundColor=none;strokeWidth=1;">
      <mxGeometry x="-64" y="-13" width="297" height="96" as="geometry" />
    </mxCell>
    <mxCell id="node4" parent="1" vertex="1" value="&lt;p style=&quot;margin:0px;margin-top:4px;text-align:center;&quot;&gt;&lt;b&gt;User&lt;/b&gt;&lt;/p&gt;&lt;hr size=&quot;1&quot;/&gt;&lt;p style=&quot;margin:0 0 0 4px;line-height:1.6;&quot;&gt;+ User(): &lt;/p&gt;&lt;hr size=&quot;1&quot;/&gt;&lt;p style=&quot;margin:0 0 0 4px;line-height:1.6;&quot;&gt;- id: String&lt;br/&gt;- level: int&lt;br/&gt;- name: String&lt;/p&gt;&lt;hr size=&quot;1&quot;/&gt;&lt;p style=&quot;margin:0 0 0 4px;line-height:1.6;&quot;&gt;~ sendInv(): void&lt;br/&gt;~ updateRewards(): void&lt;br/&gt;~ purchaseBirds(Birds): void&lt;br/&gt;~ changeDetails(): void&lt;br/&gt;~ Logout(): void&lt;br/&gt;~ getCoins(): void&lt;br/&gt;~ buyGems(): void&lt;/p&gt;&lt;hr size=&quot;1&quot;/&gt;&lt;p style=&quot;margin:0 0 0 4px;line-height:1.6;&quot;&gt; name: String&lt;br/&gt; id: String&lt;br/&gt; level: int&lt;/p&gt;" style="verticalAlign=top;align=left;overflow=fill;fontSize=14;fontFamily=Helvetica;html=1;rounded=0;shadow=0;comic=0;labelBackgroundColor=none;strokeWidth=1;">
      <mxGeometry x="-60" y="281" width="208" height="381" as="geometry" />
    </mxCell>
    <mxCell id="edge6" edge="1" value="" parent="1" source="node2" target="node5" style="html=1;rounded=1;edgeStyle=orthogonalEdgeStyle;dashed=0;startArrow=diamondThinstartSize=12;endArrow=openThin;endSize=12;strokeColor=#595959;exitX=0.500;exitY=0.000;exitDx=0;exitDy=0;entryX=0.500;entryY=1.000;entryDx=0;entryDy=0;">
      <mxGeometry width="50" height="50" relative="1" as="geometry">
        <Array as="points">
          <mxPoint x="44" y="711" />
          <mxPoint x="284" y="711" />
        </Array>
      </mxGeometry>
    </mxCell>
    <mxCell id="label36" parent="edge6" vertex="1" connectable="0" value="1" style="edgeLabel;resizable=0;html=1;align=left;verticalAlign=top;strokeColor=default;">
      <mxGeometry x="33" y="1128" as="geometry" />
    </mxCell>
    <mxCell id="label40" parent="edge6" vertex="1" connectable="0" value="*" style="edgeLabel;resizable=0;html=1;align=left;verticalAlign=top;strokeColor=default;">
      <mxGeometry x="207" y="691" as="geometry" />
    </mxCell>
    <mxCell id="label41" parent="edge6" vertex="1" connectable="0" value="allBirds" style="edgeLabel;resizable=0;html=1;align=left;verticalAlign=top;strokeColor=default;">
      <mxGeometry x="284" y="563" as="geometry" />
    </mxCell>
    <mxCell id="edge3" edge="1" value="" parent="1" source="node2" target="node1" style="html=1;rounded=1;edgeStyle=orthogonalEdgeStyle;dashed=0;startArrow=diamondThinstartSize=12;endArrow=openThin;endSize=12;strokeColor=#595959;exitX=0.500;exitY=0.000;exitDx=0;exitDy=0;entryX=0.500;entryY=1.000;entryDx=0;entryDy=0;">
      <mxGeometry width="50" height="50" relative="1" as="geometry">
        <Array as="points">
          <mxPoint x="44" y="691" />
          <mxPoint x="164" y="691" />
        </Array>
      </mxGeometry>
    </mxCell>
    <mxCell id="label18" parent="edge3" vertex="1" connectable="0" value="1" style="edgeLabel;resizable=0;html=1;align=left;verticalAlign=top;strokeColor=default;">
      <mxGeometry x="33" y="1050" as="geometry" />
    </mxCell>
    <mxCell id="label22" parent="edge3" vertex="1" connectable="0" value="*" style="edgeLabel;resizable=0;html=1;align=left;verticalAlign=top;strokeColor=default;">
      <mxGeometry x="155" y="282" as="geometry" />
    </mxCell>
    <mxCell id="label23" parent="edge3" vertex="1" connectable="0" value="allblocks" style="edgeLabel;resizable=0;html=1;align=left;verticalAlign=top;strokeColor=default;">
      <mxGeometry x="164" y="282" as="geometry" />
    </mxCell>
    <mxCell id="edge1" edge="1" value="" parent="1" source="node2" target="node6" style="html=1;rounded=1;edgeStyle=orthogonalEdgeStyle;dashed=0;startArrow=diamondThinstartSize=12;endArrow=openThin;endSize=12;strokeColor=#595959;exitX=0.500;exitY=0.000;exitDx=0;exitDy=0;entryX=0.500;entryY=1.000;entryDx=0;entryDy=0;">
      <mxGeometry width="50" height="50" relative="1" as="geometry">
        <Array as="points">
          <mxPoint x="44" y="731" />
          <mxPoint x="324" y="731" />
          <mxPoint x="324" y="551" />
          <mxPoint x="424" y="551" />
        </Array>
      </mxGeometry>
    </mxCell>
    <mxCell id="label6" parent="edge1" vertex="1" connectable="0" value="1" style="edgeLabel;resizable=0;html=1;align=left;verticalAlign=top;strokeColor=default;">
      <mxGeometry x="33" y="1072" as="geometry" />
    </mxCell>
    <mxCell id="label10" parent="edge1" vertex="1" connectable="0" value="*" style="edgeLabel;resizable=0;html=1;align=left;verticalAlign=top;strokeColor=default;">
      <mxGeometry x="415" y="254" as="geometry" />
    </mxCell>
    <mxCell id="label11" parent="edge1" vertex="1" connectable="0" value="allPigs" style="edgeLabel;resizable=0;html=1;align=left;verticalAlign=top;strokeColor=default;">
      <mxGeometry x="424" y="289" as="geometry" />
    </mxCell>
    <mxCell id="edge0" edge="1" value="" parent="1" source="node2" target="node4" style="html=1;rounded=1;edgeStyle=orthogonalEdgeStyle;dashed=0;startArrow=diamondThinstartSize=12;endArrow=openThin;endSize=12;strokeColor=#595959;exitX=0.500;exitY=0.000;exitDx=0;exitDy=0;entryX=0.500;entryY=1.000;entryDx=0;entryDy=0;">
      <mxGeometry width="50" height="50" relative="1" as="geometry">
        <Array as="points" />
      </mxGeometry>
    </mxCell>
    <mxCell id="label0" parent="edge0" vertex="1" connectable="0" value="1" style="edgeLabel;resizable=0;html=1;align=left;verticalAlign=top;strokeColor=default;">
      <mxGeometry x="33" y="1102" as="geometry" />
    </mxCell>
    <mxCell id="label4" parent="edge0" vertex="1" connectable="0" value="1" style="edgeLabel;resizable=0;html=1;align=left;verticalAlign=top;strokeColor=default;">
      <mxGeometry x="33" y="672" as="geometry" />
    </mxCell>
    <mxCell id="label5" parent="edge0" vertex="1" connectable="0" value="user" style="edgeLabel;resizable=0;html=1;align=left;verticalAlign=top;strokeColor=default;">
      <mxGeometry x="44" y="672" as="geometry" />
    </mxCell>
    <mxCell id="edge2" edge="1" value="" parent="1" source="node7" target="node5" style="html=1;rounded=1;edgeStyle=orthogonalEdgeStyle;dashed=0;startArrow=diamondThinstartSize=12;endArrow=openThin;endSize=12;strokeColor=#595959;exitX=0.500;exitY=0.000;exitDx=0;exitDy=0;entryX=0.500;entryY=1.000;entryDx=0;entryDy=0;">
      <mxGeometry width="50" height="50" relative="1" as="geometry">
        <Array as="points">
          <mxPoint x="304" y="751" />
          <mxPoint x="284" y="751" />
        </Array>
      </mxGeometry>
    </mxCell>
    <mxCell id="label12" parent="edge2" vertex="1" connectable="0" value="1" style="edgeLabel;resizable=0;html=1;align=left;verticalAlign=top;strokeColor=default;">
      <mxGeometry x="293" y="741" as="geometry" />
    </mxCell>
    <mxCell id="label16" parent="edge2" vertex="1" connectable="0" value="*" style="edgeLabel;resizable=0;html=1;align=left;verticalAlign=top;strokeColor=default;">
      <mxGeometry x="275" y="540" as="geometry" />
    </mxCell>
    <mxCell id="label17" parent="edge2" vertex="1" connectable="0" value="birds" style="edgeLabel;resizable=0;html=1;align=left;verticalAlign=top;strokeColor=default;">
      <mxGeometry x="284" y="540" as="geometry" />
    </mxCell>
    <mxCell id="edge4" edge="1" value="" parent="1" source="node7" target="node1" style="html=1;rounded=1;edgeStyle=orthogonalEdgeStyle;dashed=0;startArrow=diamondThinstartSize=12;endArrow=openThin;endSize=12;strokeColor=#595959;exitX=0.500;exitY=0.000;exitDx=0;exitDy=0;entryX=0.500;entryY=1.000;entryDx=0;entryDy=0;">
      <mxGeometry width="50" height="50" relative="1" as="geometry">
        <Array as="points">
          <mxPoint x="304" y="771" />
          <mxPoint x="164" y="771" />
        </Array>
      </mxGeometry>
    </mxCell>
    <mxCell id="label24" parent="edge4" vertex="1" connectable="0" value="1" style="edgeLabel;resizable=0;html=1;align=left;verticalAlign=top;strokeColor=default;">
      <mxGeometry x="201" y="751" as="geometry" />
    </mxCell>
    <mxCell id="label28" parent="edge4" vertex="1" connectable="0" value="*" style="edgeLabel;resizable=0;html=1;align=left;verticalAlign=top;strokeColor=default;">
      <mxGeometry x="155" y="253" as="geometry" />
    </mxCell>
    <mxCell id="label29" parent="edge4" vertex="1" connectable="0" value="blocks" style="edgeLabel;resizable=0;html=1;align=left;verticalAlign=top;strokeColor=default;">
      <mxGeometry x="164" y="253" as="geometry" />
    </mxCell>
    <mxCell id="edge5" edge="1" value="" parent="1" source="node7" target="node6" style="html=1;rounded=1;edgeStyle=orthogonalEdgeStyle;dashed=0;startArrow=diamondThinstartSize=12;endArrow=openThin;endSize=12;strokeColor=#595959;exitX=0.500;exitY=0.000;exitDx=0;exitDy=0;entryX=0.500;entryY=1.000;entryDx=0;entryDy=0;">
      <mxGeometry width="50" height="50" relative="1" as="geometry">
        <Array as="points">
          <mxPoint x="304" y="791" />
          <mxPoint x="324" y="791" />
          <mxPoint x="324" y="551" />
          <mxPoint x="424" y="551" />
        </Array>
      </mxGeometry>
    </mxCell>
    <mxCell id="label30" parent="edge5" vertex="1" connectable="0" value="1" style="edgeLabel;resizable=0;html=1;align=left;verticalAlign=top;strokeColor=default;">
      <mxGeometry x="319" y="771" as="geometry" />
    </mxCell>
    <mxCell id="label34" parent="edge5" vertex="1" connectable="0" value="*" style="edgeLabel;resizable=0;html=1;align=left;verticalAlign=top;strokeColor=default;">
      <mxGeometry x="415" y="289" as="geometry" />
    </mxCell>
    <mxCell id="label35" parent="edge5" vertex="1" connectable="0" value="pigs" style="edgeLabel;resizable=0;html=1;align=left;verticalAlign=top;strokeColor=default;">
      <mxGeometry x="424" y="254" as="geometry" />
    </mxCell>
  </root>
</mxGraphModel>